<?xml version="1.0" standalone="no"?><!DOCTYPE svg PUBLIC "-//W3C//DTD SVG 1.1//EN" "http://www.w3.org/Graphics/SVG/1.1/DTD/svg11.dtd"><svg t="1645889879685" class="icon" viewBox="0 0 1024 1024" version="1.1" xmlns="http://www.w3.org/2000/svg" p-id="5918" xmlns:xlink="http://www.w3.org/1999/xlink" width="128" height="128"><defs><style type="text/css"></style></defs><path d="M235.52 646.736842a54.864842 54.864842 0 1 0 77.608421 77.608421 53.894737 53.894737 0 0 0 16.168421-38.80421 53.894737 53.894737 0 0 0-94.315789-39.343158z" p-id="5919"></path><path d="M877.945263 0H146.054737A146.593684 146.593684 0 0 0 0 146.054737v731.890526A146.593684 146.593684 0 0 0 146.054737 1024h731.890526A146.593684 146.593684 0 0 0 1024 877.945263V146.054737A146.593684 146.593684 0 0 0 877.945263 0zM274.324211 828.362105a142.821053 142.821053 0 1 1 142.821052-142.821052 142.821053 142.821053 0 0 1-142.821052 142.821052zM420.378947 282.408421L274.324211 429.002105a53.894737 53.894737 0 0 1-72.218948 0L128.269474 355.705263a51.2 51.2 0 0 1 72.218947-72.218947l37.187368 37.187368 107.789474-107.789473a50.122105 50.122105 0 0 1 36.109474-15.090527 53.894737 53.894737 0 0 1 53.894737 50.661053 49.583158 49.583158 0 0 1-15.090527 33.953684z m438.703158 453.793684H565.894737a50.930526 50.930526 0 1 1 0-101.861052h292.648421a50.930526 50.930526 0 0 1 0 101.861052z m0-292.648421H565.894737a50.930526 50.930526 0 1 1 0-101.861052h292.648421a50.930526 50.930526 0 0 1 0 101.861052z" p-id="5920"></path></svg>